<svg id="Capa_1" enable-background="new 0 0 511.993 511.993" height="512" viewBox="0 0 511.993 511.993" width="512" xmlns="http://www.w3.org/2000/svg"><g><path d="m437.013 74.98c-48.351-48.352-112.638-74.98-181.016-74.98s-132.666 26.628-181.017 74.98c-48.352 48.351-74.98 112.638-74.98 181.017s26.628 132.666 74.98 181.017c48.351 48.352 112.638 74.98 181.017 74.98 86.825 0 167.025-43.466 214.537-116.272 2.264-3.469 1.287-8.116-2.182-10.379-3.467-2.265-8.116-1.287-10.379 2.182-44.732 68.546-120.236 109.47-201.975 109.47-132.888-.002-240.998-108.112-240.998-240.998s108.11-240.997 240.997-240.997 240.997 108.11 240.997 240.997c0 35.572-7.567 69.822-22.49 101.798-1.751 3.753-.129 8.216 3.625 9.968 3.752 1.752 8.216.129 9.968-3.625 15.857-33.977 23.897-70.361 23.897-108.142-.001-68.378-26.629-132.665-74.981-181.016z"/><path d="m469.937 321.086c3.998 1.069 8.112-1.298 9.186-5.304 1.072-4.001-1.303-8.113-5.304-9.186l-7.529-2.018c3.061-13.367 4.858-27.11 5.333-41.083h7.872c4.142 0 7.5-3.358 7.5-7.5s-3.358-7.5-7.5-7.5h-7.872c-.474-13.973-2.271-27.716-5.333-41.083l7.529-2.018c4.001-1.072 6.375-5.185 5.304-9.186-1.072-4.001-5.186-6.374-9.186-5.304l-7.506 2.011c-4.031-13.254-9.339-26.067-15.86-38.289l6.73-3.885c3.587-2.071 4.816-6.658 2.745-10.245-2.071-3.588-6.659-4.816-10.245-2.745l-6.751 3.898c-7.287-11.617-15.734-22.605-25.28-32.821l5.567-5.567c2.929-2.929 2.929-7.678 0-10.606-2.929-2.929-7.678-2.929-10.606 0l-5.567 5.567c-10.216-9.546-21.204-17.992-32.821-25.28l3.898-6.751c2.071-3.587.842-8.174-2.745-10.245-3.587-2.072-8.175-.842-10.245 2.745l-3.885 6.73c-12.222-6.521-25.035-11.829-38.289-15.86l2.011-7.506c1.072-4.001-1.302-8.113-5.304-9.186-3.995-1.068-8.113 1.302-9.186 5.304l-2.018 7.529c-13.367-3.061-27.11-4.858-41.083-5.333v-7.869c0-4.142-3.358-7.5-7.5-7.5s-7.5 3.358-7.5 7.5v7.874c-9.253.318-18.489 1.224-27.557 2.706-4.795-.719-9.663-1.166-14.586-1.331l-.958-3.574c-1.072-4.001-5.185-6.373-9.186-5.303-4.001 1.072-6.375 5.185-5.303 9.186l.025.095c-35.275 3.056-67.209 20.657-88.858 49.341-.033.044-.065.088-.097.132-2.9-1.842-6.789-1.499-9.32 1.032-2.929 2.929-2.929 7.678 0 10.606l5.567 5.567c-9.542 10.215-17.987 21.206-25.274 32.824l-6.758-3.902c-3.587-2.072-8.175-.843-10.245 2.745-2.071 3.587-.842 8.174 2.745 10.245l6.739 3.89c-6.52 12.223-11.828 25.036-15.86 38.286l-7.515-2.014c-3.997-1.069-8.113 1.302-9.186 5.304-1.072 4.001 1.303 8.113 5.304 9.186l7.535 2.019c-3.064 13.37-4.863 27.113-5.338 41.082h-7.871c-4.142 0-7.5 3.358-7.5 7.5s3.358 7.5 7.5 7.5h7.875c.487 13.934 2.326 27.677 5.429 41.056l-7.629 2.044c-4.001 1.072-6.375 5.185-5.304 9.186 1.073 4.003 5.184 6.374 9.186 5.304l7.641-2.047c4.059 13.244 9.377 26.052 15.863 38.245l-6.868 3.965c-3.587 2.071-4.816 6.658-2.745 10.245 2.077 3.599 6.668 4.811 10.245 2.745l6.866-3.964c7.298 11.691 15.723 22.706 25.184 32.868l-5.586 5.586c-2.929 2.929-2.929 7.678 0 10.606 2.929 2.929 7.678 2.929 10.606 0l5.575-5.575c6.182 5.777 12.732 11.218 19.631 16.281.463 5.294.807 9.226 1.009 11.537.164 1.878.761 3.722 1.726 5.334.001.002.004.007.005.008 0 .001.001.002.001.002.001.001.001.002.002.003.96 1.601 2.292 2.984 3.854 4 16.797 10.93 35.885 17.516 55.765 19.315-.875 3.903 1.479 7.836 5.378 8.881 4.008 1.071 8.115-1.306 9.186-5.303l.843-3.145c5.348-.182 10.652-.708 15.884-1.57 8.683 1.369 17.521 2.211 26.374 2.516v7.873c0 4.142 3.358 7.5 7.5 7.5s7.5-3.358 7.5-7.5v-7.872c13.973-.474 27.716-2.271 41.083-5.333l2.018 7.529c1.073 4.003 5.184 6.374 9.186 5.304 4.001-1.072 6.375-5.185 5.304-9.186l-2.011-7.506c13.254-4.031 26.067-9.339 38.289-15.86l3.885 6.73c2.077 3.599 6.668 4.811 10.245 2.745 3.587-2.071 4.816-6.658 2.745-10.245l-3.898-6.751c11.617-7.287 22.605-15.734 32.821-25.28l5.567 5.567c2.929 2.929 7.678 2.929 10.606 0 2.929-2.929 2.929-7.678 0-10.606l-5.567-5.567c9.546-10.216 17.992-21.204 25.28-32.821l6.751 3.898c3.574 2.064 8.167.856 10.245-2.745 2.071-3.587.842-8.174-2.745-10.245l-6.73-3.885c6.521-12.222 11.829-25.035 15.86-38.289zm-210.869 135.639c3.375-1.772 6.677-3.706 9.895-5.8 3.157-2.055 5.249-5.491 5.586-9.346 2.08-23.774 27.52-314.709 29.857-341.514.129-1.493-.008-2.978-.405-4.416-.003-.011-.007-.026-.01-.036v-.001c-.426-1.512-1.105-2.885-2.037-4.12-11.691-15.489-26.381-27.746-42.976-36.227 122.046 1.786 197.774 103.361 197.774 200.737-.001 109.973-88.696 199.08-197.684 200.723zm-57.054-.979c-17.226 0-34.282-4.068-49.802-12.155 18.891-11.242 35.727-25.595 49.808-42.42 14.075 16.786 31.023 31.214 49.805 42.415-15.312 7.981-32.34 12.16-49.811 12.16zm15.26-75.473c6.928 8.92 14.788 17.176 23.465 24.637 3.147 2.706 7.882 2.337 10.577-.797 2.7-3.141 2.343-7.876-.797-10.577-9.505-8.172-17.931-17.384-25.095-27.429 14.344-27.567 21.864-58.259 21.864-89.638 0-31.679-7.483-62.17-21.845-89.669 12.317-17.24 28.461-32.074 46.927-43.077 3.558-2.12 4.724-6.724 2.604-10.282s-6.723-4.724-10.282-2.604c-18.275 10.89-34.483 25.213-47.409 41.821-1.869-2.946-3.823-5.85-5.86-8.711 20.228-25.042 47.2-44.455 77.208-55.65-4.586 52.505-23.641 270.412-28.234 322.933-18.643-10.97-35.36-25.379-48.974-42.239 2.024-2.848 3.976-5.755 5.851-8.718zm-16.753-323.588c.09.001.149.001.283-.003 6.403-.068 12.549.403 18.427 1.315.328.076.662.129 1.002.16 24.868 4.094 47.404 16.538 64.278 35.672-31.852 11.659-60.601 31.847-82.498 57.948-21.901-26.105-50.638-46.288-82.498-57.948 20.59-23.347 49.607-36.733 81.006-37.144zm-145.277 199.312c0-46.088 15.536-91.598 46.748-128.8 2.153 24.643 5.46 62.469 9.048 103.51.361 4.127 4.002 7.169 8.125 6.818 4.126-.361 7.179-3.999 6.818-8.125-4.61-52.73-8.756-100.153-10.587-121.125 69.547 25.676 116.893 91.44 116.893 168.194 0 64.796-34.188 122.886-88.656 154.776-4.24-48.497-3.331-38.08-14.671-167.785-.361-4.126-4.003-7.175-8.125-6.818-4.126.361-7.179 3.999-6.818 8.125 4.787 54.75 9.648 110.344 12.66 144.782-45.009-37.979-71.435-94.219-71.435-153.552z"/><path d="m131.658 143.722c17.262 10.285 32.708 24.115 44.668 39.995 20.256 26.896 30.962 58.969 30.962 92.753 0 45.231-19.593 87.936-53.755 117.166-3.147 2.693-3.516 7.427-.823 10.575 2.696 3.151 7.432 3.512 10.575.823 37.498-32.083 59.003-78.943 59.003-128.563 0-62.336-33.378-116.097-82.953-145.634-3.559-2.121-8.162-.954-10.282 2.604-2.12 3.557-.953 8.161 2.605 10.281z"/><circle cx="151.599" cy="89.01" r="7.5"/><circle cx="198.151" cy="94.855" r="7.5"/><circle cx="220.288" cy="109.509" r="7.5"/><circle cx="244.929" cy="84.855" r="7.5"/><circle cx="192.891" cy="437.338" r="7.5"/><path d="m373.384 193.961c-35.93 0-65.162 29.231-65.162 65.162 0 35.93 29.231 65.162 65.162 65.162 20.927 0 40.72-10.158 52.948-27.172 2.417-3.364 1.65-8.05-1.713-10.467-3.364-2.417-8.051-1.65-10.467 1.713-9.417 13.103-24.657 20.926-40.767 20.926-27.659 0-50.162-22.502-50.162-50.162s22.502-50.162 50.162-50.162 50.162 22.502 50.162 50.162c0 4.142 3.358 7.5 7.5 7.5s7.5-3.358 7.5-7.5c-.001-35.931-29.232-65.162-65.163-65.162z"/><path d="m373.384 218.961c-22.145 0-40.162 18.017-40.162 40.162s18.017 40.162 40.162 40.162c22.146 0 40.162-18.017 40.162-40.162s-18.016-40.162-40.162-40.162zm0 65.324c-13.874 0-25.162-11.288-25.162-25.162 0-13.875 11.288-25.162 25.162-25.162 13.875 0 25.162 11.288 25.162 25.162s-11.287 25.162-25.162 25.162z"/><path d="m373.384 243.961c-4.142 0-7.5 3.358-7.5 7.5s3.358 7.5 7.5 7.5c.083 0 .162.079.162.162 0 4.142 3.358 7.5 7.5 7.5s7.5-3.358 7.5-7.5c0-8.36-6.801-15.162-15.162-15.162z"/></g></svg>