<svg id="Capa_1" enable-background="new 0 0 512.001 512.001" height="512" viewBox="0 0 512.001 512.001" width="512" xmlns="http://www.w3.org/2000/svg"><g><path d="m256.005.004c-68.379 0-132.666 26.628-181.017 74.979-48.352 48.351-74.98 112.639-74.98 181.017 0 25.351 3.697 50.391 10.99 74.427 1.202 3.964 5.39 6.201 9.354 4.999s6.202-5.391 5-9.354c-6.864-22.622-10.344-46.198-10.344-70.072 0-132.886 108.111-240.996 240.997-240.996s240.996 108.11 240.996 240.996-108.11 240.996-240.996 240.996c-50.568 0-98.65-15.354-139.541-44.48 4.233-5.666 8.673-11.757 13.182-18.129.547-.773 1.111-1.532 1.69-2.276 3.393 2.41 6.842 4.714 10.342 6.911l-3.916 6.783c-2.071 3.587-.842 8.174 2.745 10.245 3.571 2.061 8.165.858 10.245-2.745l3.9-6.754c12.255 6.551 25.056 11.862 38.274 15.89l-2.01 7.5c-1.072 4.001 1.302 8.113 5.303 9.186 3.993 1.073 8.113-1.297 9.186-5.303l2.015-7.521c13.374 3.064 27.111 4.853 41.085 5.324v7.87c0 4.143 3.358 7.5 7.5 7.5s7.5-3.357 7.5-7.5v-7.871c13.973-.474 27.716-2.271 41.083-5.333l2.018 7.53c1.074 4.01 5.197 6.375 9.186 5.303 4.001-1.072 6.375-5.185 5.303-9.186l-2.011-7.506c13.254-4.031 26.067-9.339 38.289-15.86l3.886 6.73c2.082 3.605 6.675 4.806 10.245 2.745 3.587-2.071 4.816-6.658 2.745-10.245l-3.898-6.751c11.616-7.288 22.605-15.734 32.821-25.28l5.567 5.567c2.931 2.929 7.678 2.928 10.607 0 2.929-2.93 2.929-7.678 0-10.607l-5.567-5.567c9.545-10.216 17.991-21.204 25.279-32.821l6.752 3.898c3.583 2.067 8.172.847 10.245-2.745 2.071-3.587.842-8.174-2.745-10.245l-6.731-3.886c6.521-12.223 11.829-25.036 15.86-38.29l7.506 2.011c3.993 1.073 8.113-1.297 9.186-5.303 1.072-4.001-1.302-8.114-5.303-9.186l-7.531-2.018c3.061-13.367 4.858-27.109 5.332-41.083h7.872c4.143 0 7.5-3.357 7.5-7.5s-3.357-7.5-7.5-7.5h-7.873c-.478-13.914-2.284-27.659-5.371-41.072l7.57-2.028c4.001-1.071 6.375-5.185 5.303-9.186-1.071-4.001-5.184-6.379-9.186-5.303l-7.559 2.025c-4.029-13.208-9.332-26.021-15.861-38.273l6.784-3.917c3.587-2.071 4.816-6.658 2.745-10.245-2.07-3.587-6.659-4.815-10.245-2.745l-6.795 3.923c-.619-.989-1.246-1.973-1.882-2.953-2.255-3.475-6.899-4.464-10.374-2.21s-4.464 6.898-2.21 10.374c21.179 32.647 32.214 70.488 32.214 109.109 0 110.49-89.847 200.754-200.757 200.754-41.385 0-80.55-12.343-113.932-35.435 11.731-9.239 26.523-14.178 41.449-13.371 7.757.416 15.583.02 23.424-1.128 4.758 4.844 9.752 9.729 16.18 13.088 10.593 5.534 22.318 5.55 32.103 7.997 9.639 2.409 20.005 7.961 32.176 7.961 12.191 0 22.53-5.551 32.177-7.96 9.774-2.446 21.51-2.464 32.103-7.998 10.472-5.472 17.226-15.077 24.939-21.56 7.533-6.332 18.085-11.215 25.564-20.579 7.273-9.104 9.77-20.451 14.526-29.321 4.568-8.52 12.689-16.876 16.451-28.188 3.649-10.975 2.203-22.468 3.778-32.37 1.515-9.541 6.503-19.931 6.503-31.889 0-11.943-4.995-22.387-6.504-31.89-1.579-9.934-.125-21.383-3.777-32.37-3.771-11.339-11.869-19.64-16.451-28.188-4.756-8.871-7.259-20.224-14.525-29.318-7.473-9.356-18.078-14.284-25.565-20.58-7.718-6.489-14.469-16.09-24.939-21.561-10.593-5.534-22.318-5.55-32.103-7.997-9.64-2.409-20.009-7.961-32.177-7.961-12.19 0-22.531 5.551-32.176 7.96-9.776 2.447-21.51 2.464-32.102 7.998-10.478 5.476-17.225 15.076-24.94 21.56-7.514 6.317-18.081 11.211-25.565 20.579-4.613 5.774-7.294 12.434-9.888 18.873-1.498 3.719-2.912 7.23-4.637 10.448-4.577 8.538-12.682 16.857-16.451 28.188-2.407 7.235-2.589 14.579-2.912 22.044-12.733 13.152-22.985 28.103-30.325 43.823-4.571 7.198-14.401 35.495-12.96 62.265.754 14.007-3.55 27.901-11.72 39.255-18.057-30.08-28.483-65.495-28.483-103.1 0-110.362 89.705-200.779 200.761-200.779 55.72 0 109.408 23.456 147.299 64.354 2.815 3.036 7.56 3.218 10.6.404 3.038-2.815 3.219-7.561.404-10.6-.177-.19-.354-.38-.531-.57l5.568-5.568c2.929-2.93 2.929-7.678 0-10.607-2.93-2.928-7.678-2.928-10.607 0l-5.562 5.562c-10.155-9.494-21.125-17.928-32.84-25.249l3.912-6.776c2.071-3.587.842-8.174-2.745-10.245-3.587-2.07-8.176-.843-10.245 2.745l-3.912 6.776c-12.185-6.48-25.06-11.832-38.272-15.874l2.02-7.538c1.072-4.001-1.302-8.113-5.303-9.186-4.002-1.078-8.114 1.302-9.186 5.303l-2.021 7.542c-13.41-3.087-27.13-4.875-41.08-5.346v-7.87c0-4.143-3.357-7.5-7.5-7.5-4.142 0-7.5 3.357-7.5 7.5v7.871c-13.973.474-27.716 2.271-41.083 5.333l-2.018-7.53c-1.072-4.001-5.183-6.381-9.186-5.303-4.001 1.072-6.375 5.185-5.303 9.186l2.011 7.506c-13.254 4.031-26.067 9.339-38.289 15.86l-3.886-6.73c-2.071-3.588-6.66-4.814-10.245-2.745-3.587 2.071-4.816 6.658-2.745 10.245l3.898 6.751c-11.617 7.288-22.605 15.734-32.821 25.28l-5.566-5.566c-2.929-2.93-7.678-2.929-10.606-.001-2.929 2.929-2.929 7.678 0 10.606l5.566 5.566c-9.546 10.216-17.992 21.205-25.28 32.822l-6.751-3.898c-3.588-2.071-8.175-.843-10.245 2.745-2.071 3.587-.842 8.174 2.745 10.245l6.73 3.886c-6.521 12.222-11.829 25.036-15.86 38.29l-7.506-2.011c-3.996-1.075-8.113 1.302-9.186 5.303-1.072 4.001 1.302 8.114 5.304 9.186l7.53 2.018c-3.061 13.367-4.858 27.11-5.333 41.083h-7.872c-4.142 0-7.5 3.357-7.5 7.5s3.358 7.5 7.5 7.5h7.872c.477 13.926 2.28 27.669 5.363 41.075l-7.561 2.026c-4.001 1.071-6.375 5.185-5.304 9.186 1.076 4.016 5.204 6.374 9.186 5.303l7.551-2.023c4.029 13.208 9.334 26.018 15.867 38.272l-6.781 3.916c-3.587 2.071-4.816 6.658-2.745 10.245 2.081 3.605 6.675 4.806 10.245 2.745l6.795-3.923c.049.078.098.156.147.234-1.328 1.118-2.707 2.185-4.135 3.195-5.677 4.017-11.131 7.979-16.26 11.789-5.714-8.95-10.852-18.3-15.317-27.885-1.749-3.755-6.209-5.379-9.966-3.632-3.754 1.75-5.38 6.212-3.631 9.966 4.913 10.545 10.59 20.821 16.92 30.635-12.368 9.558-21.662 17.382-25.776 21.495-11.027 11.023-16.373 26.247-14.666 41.763 1.162 10.556 10.093 18.516 20.776 18.516 3.257 0 5.907 2.65 5.907 5.907 0 10.683 7.96 19.614 18.516 20.775 15.635 1.719 30.822-3.721 41.767-14.666 3.909-3.909 11.173-12.501 20.091-23.964 43.529 31.13 94.756 47.544 148.636 47.544 68.379 0 132.665-26.628 181.017-74.979s74.979-112.638 74.979-181.017-26.628-132.666-74.979-181.017c-48.352-48.351-112.638-74.979-181.017-74.979zm-71.677 392.965c-26.043-1.401-51.669 11.187-66.927 32.754-2.356 3.33-4.709 6.603-7.032 9.788.016-3.625.025-4.194.004-8.249-.061-12.357-.119-24.029 5.789-32.312 6.338-8.887 19.797-13.085 32.38-19.009 11.685-5.502 23.281-13.782 35.52-13.782 12.238 0 23.832 8.279 35.52 13.782 5.207 2.452 11.128 4.847 16.06 7.185-16.841 7.246-34.46 10.743-51.314 9.843zm-19.917-211.49c2.383-3.441 4.847-7 6.905-10.839 5.15-9.61 7.568-20.216 13.024-27.046 5.653-7.076 15.346-11.607 23.498-18.459 8.272-6.955 14.483-15.697 22.234-19.747 7.821-4.088 18.453-4.154 28.793-6.74 10.212-2.552 19.562-7.513 28.538-7.513 8.966 0 18.31 4.954 28.538 7.514 10.341 2.583 20.98 2.655 28.795 6.739 4.784 2.5 8.986 6.791 13.435 11.335 2.765 2.824 5.624 5.744 8.799 8.413 3.171 2.665 6.577 4.98 9.872 7.22 5.229 3.556 10.17 6.914 13.626 11.24 3.24 4.055 5.404 9.427 7.694 15.113 1.582 3.929 3.219 7.99 5.33 11.93 5.047 9.414 12.553 17.159 15.438 25.836 2.768 8.319 1.473 19.143 3.197 29.99 1.681 10.57 6.318 20.322 6.318 29.535 0 9.211-4.636 18.96-6.317 29.534-1.733 10.9-.422 21.645-3.197 29.991-1.712 5.146-5.025 9.931-8.533 14.996-2.383 3.441-4.847 7-6.905 10.839-5.151 9.61-7.568 20.216-13.024 27.046-5.653 7.075-15.346 11.608-23.498 18.459-8.274 6.955-14.483 15.698-22.234 19.747-7.823 4.089-18.425 4.147-28.793 6.74-10.241 2.559-19.557 7.513-28.539 7.513-8.965 0-18.31-4.954-28.537-7.514-10.34-2.583-20.981-2.655-28.795-6.739-1.871-.978-3.653-2.229-5.396-3.663 25.412-7.368 48.557-21.881 66.848-40.171 24.944-24.944 40.745-56.148 44.492-87.864 3.824-32.378-5.302-61.442-25.698-81.839-16.151-16.151-38.055-25.245-62.442-26.406-.195-.017-.392-.026-.59-.027-8.926-.378-18.18.305-27.603 2.09-4.069.771-6.743 4.696-5.972 8.766s4.691 6.735 8.766 5.973c6.087-1.154 12.081-1.783 17.926-1.903-.788 4.649-4.425 9.996-8.247 15.611-3.03 4.454-6.164 9.059-8.511 14.143-5.416 11.73-4.888 27.17-12.454 34.736-7.565 7.565-22.998 7.036-34.738 12.456-5.083 2.347-9.689 5.48-14.143 8.511-6.5 4.422-12.631 8.584-17.753 8.396-7.479-.297-13.592-7.082-20.063-14.267-.251-.279-.504-.559-.758-.841 6.833-13.568 16.114-26.462 27.487-37.836 11.863-11.862 25.219-21.434 39.697-28.447 3.728-1.807 5.286-6.292 3.479-10.02-1.805-3.729-6.291-5.283-10.02-3.48-10.285 4.983-20.047 11.124-29.177 18.344.194-.82.417-1.621.676-2.4 1.711-5.144 5.024-9.93 8.532-14.995zm143.781 127.698c-3.569-8.523-4.446-10.29-8.35-17.359-4.266-7.728-8.296-15.026-8.296-22.784 0-7.757 4.029-15.056 8.296-22.783 3.918-7.097 4.797-8.876 8.35-17.359 1.27-3.035 2.509-5.995 3.836-8.738 14.13 25.866 12.819 60.206-2.55 92.081-.427-1.006-.854-2.027-1.286-3.058zm-231.521 168.633c-7.792 7.792-18.551 11.568-29.52 10.362-2.939-.323-5.156-2.845-5.156-5.865 0-11.528-9.379-20.907-20.907-20.907-3.021 0-5.542-2.217-5.865-5.156-1.207-10.969 2.57-21.729 10.362-29.52 10.28-10.281 39.423-31.77 52.087-40.73 21.826-15.443 34.139-41.203 32.754-66.928-.77-14.303 1.632-29.157 6.807-43.619 6.985 7.435 15.142 14.504 26.729 14.963 10.06.386 18.501-5.346 26.786-10.983 3.949-2.688 8.034-5.466 11.992-7.293 3.354-1.549 7.714-2.534 12.33-3.578 8.985-2.03 19.169-4.332 26.727-11.891 7.558-7.558 9.859-17.741 11.89-26.726 1.043-4.615 2.028-8.976 3.577-12.33 5.114-11.078 16.777-21.848 18.161-35.186 18.374 2.537 34.87 10.585 47.005 24.132-4.938 7.701-7.85 16.67-11.531 24.488-4.969 10.553-14.352 22.669-14.352 37.991 0 15.328 9.384 27.442 14.352 37.992 3.165 6.72 5.746 14.252 9.556 21.157-11.995 18.339-28.726 34.831-48.648 46.685-8.095-5.185-17.496-8.572-25.834-12.497-11.791-5.552-25.282-15.212-41.91-15.212-16.631 0-30.127 9.663-41.911 15.212-13.375 6.297-29.087 11.089-38.201 23.868-8.72 12.226-8.644 27.564-8.577 41.098.049 10.162-.301 18.691.811 27.06-8.65 11.163-15.795 19.694-19.514 23.413z"/><path d="m177.145 319.372h21.014c4.142 0 7.5-3.357 7.5-7.5s-3.358-7.5-7.5-7.5h-21.014c-4.142 0-7.5 3.357-7.5 7.5s3.358 7.5 7.5 7.5z"/><path d="m254.33 289.756c2.928 2.929 7.677 2.93 10.606.001 2.93-2.93 2.93-7.678.001-10.607l-15.43-15.429c-2.928-2.93-7.677-2.929-10.606-.001-2.929 2.93-2.929 7.678 0 10.607z"/><path d="m258.698 325.266-12.572 12.573c-2.929 2.929-2.928 7.678 0 10.606 2.93 2.928 7.677 2.929 10.607-.001l12.572-12.573c2.929-2.929 2.929-7.678-.001-10.606-2.927-2.928-7.676-2.929-10.606.001z"/><path d="m71.378 420.866c-8.023 1.121-24.03-3.838-24.03 7.5 0 4.143 3.358 7.5 7.5 7.5h16.53c4.142 0 7.5-3.357 7.5-7.5s-3.358-7.5-7.5-7.5z"/><path d="m132.393 344.355c4.142 0 7.5-3.357 7.5-7.5v-20.396c0-4.143-3.358-7.5-7.5-7.5s-7.5 3.357-7.5 7.5v20.396c0 4.142 3.358 7.5 7.5 7.5z"/><circle cx="266.053" cy="222.012" r="7.5"/><circle cx="156.957" cy="246.295" r="7.5"/><circle cx="232.346" cy="306.346" r="7.5"/><circle cx="58.275" cy="462.153" r="7.5"/><path d="m180.358 213.976c-.964 4.028 1.521 8.075 5.549 9.039l15.123 3.618c4.027.966 8.075-1.521 9.039-5.549s-1.521-8.075-5.549-9.039l-15.123-3.618c-4.023-.963-8.075 1.522-9.039 5.549z"/><path d="m244.204 143.959h21.849c4.143 0 7.5-3.357 7.5-7.5s-3.357-7.5-7.5-7.5h-21.849c-4.142 0-7.5 3.357-7.5 7.5s3.358 7.5 7.5 7.5z"/><path d="m350.638 194.05 10.361-10.361c2.929-2.93 2.929-7.678 0-10.607-2.93-2.928-7.678-2.928-10.607 0l-10.361 10.361c-2.929 2.93-2.929 7.678 0 10.607 2.93 2.929 7.677 2.928 10.607 0z"/><path d="m348.187 234.93c0 4.143 3.357 7.5 7.5 7.5h15.152c4.143 0 7.5-3.357 7.5-7.5s-3.357-7.5-7.5-7.5h-15.152c-4.142 0-7.5 3.358-7.5 7.5z"/><path d="m317.466 159.975c2.931 2.929 7.678 2.928 10.607 0 2.929-2.93 2.929-7.678 0-10.607l-11.859-11.859c-2.93-2.928-7.678-2.928-10.607 0-2.929 2.93-2.929 7.678 0 10.607z"/><path d="m388.638 274.944c-2.93-2.928-7.678-2.928-10.607 0-2.929 2.93-2.929 7.678 0 10.607l6.988 6.988c2.931 2.929 7.678 2.928 10.607 0 2.929-2.93 2.929-7.678 0-10.607z"/><path d="m366.482 306.345h-14.701c-4.143 0-7.5 3.357-7.5 7.5s3.357 7.5 7.5 7.5h14.701c4.143 0 7.5-3.357 7.5-7.5s-3.357-7.5-7.5-7.5z"/><path d="m388.029 212.924c2.931 2.929 7.678 2.928 10.607 0 2.929-2.93 2.929-7.678 0-10.607l-11.04-11.04c-2.93-2.928-7.678-2.928-10.607 0-2.929 2.93-2.929 7.678 0 10.607z"/><path d="m339.913 341.014-12.848 12.848c-2.929 2.93-2.929 7.678 0 10.607 2.931 2.929 7.678 2.928 10.607 0l12.848-12.848c2.929-2.93 2.929-7.678 0-10.607-2.929-2.928-7.677-2.928-10.607 0z"/><path d="m304.826 378.002c-2.93-2.928-7.678-2.928-10.607 0-2.929 2.93-2.929 7.678 0 10.607l9.658 9.658c2.931 2.929 7.678 2.928 10.607 0 2.929-2.93 2.929-7.678 0-10.607z"/></g></svg>