<svg id="Capa_1" enable-background="new 0 0 512.055 512.055" height="512" viewBox="0 0 512.055 512.055" width="512" xmlns="http://www.w3.org/2000/svg"><g><path d="m181.211 212.681h-43.031c-8.195 0-14.862 6.667-14.862 14.862v37.145c0 8.195 6.667 14.862 14.862 14.862h43.031c8.195 0 14.862-6.667 14.862-14.862v-37.145c0-8.195-6.667-14.862-14.862-14.862zm-.138 51.87h-42.756v-36.87h42.756z"/><path d="m229.18 206.344c4.142 0 7.5-3.358 7.5-7.5s-3.358-7.5-7.5-7.5h-16.3c-4.142 0-7.5 3.358-7.5 7.5s3.358 7.5 7.5 7.5z"/><path d="m348.75 277.112 11.526-11.526c2.929-2.929 2.929-7.678 0-10.606-2.929-2.929-7.678-2.929-10.606 0l-11.526 11.526c-2.929 2.929-2.929 7.678 0 10.606 2.929 2.929 7.678 2.929 10.606 0z"/><path d="m244.518 281.246-15.745-4.219c-3.996-1.067-8.113 1.302-9.186 5.304-1.072 4.001 1.303 8.113 5.304 9.186l15.745 4.219c3.998 1.069 8.112-1.298 9.186-5.304 1.071-4.002-1.303-8.114-5.304-9.186z"/><circle cx="103.115" cy="247.431" r="7.5"/><circle cx="218.506" cy="235.498" r="7.5"/><circle cx="314.152" cy="175.125" r="7.5"/><path d="m342.271 357.804-16.23 95.18c-.696 4.083 2.049 7.958 6.132 8.654 4.097.698 7.96-2.063 8.654-6.132l16.23-95.18c.696-4.083-2.049-7.958-6.132-8.654-4.085-.697-7.958 2.049-8.654 6.132z"/><path d="m283.372 374.217-8.5 99.57c-.353 4.127 2.708 7.758 6.835 8.11 4.125.353 7.758-2.707 8.11-6.835l8.5-99.57c.353-4.127-2.708-7.758-6.835-8.11-4.126-.357-7.758 2.708-8.11 6.835z"/><path d="m227.204 379.475v100.08c0 4.142 3.358 7.5 7.5 7.5s7.5-3.358 7.5-7.5v-100.08c0-4.142-3.358-7.5-7.5-7.5s-7.5 3.358-7.5 7.5z"/><path d="m177.927 367.382c-4.127.352-7.188 3.983-6.835 8.11l8.49 99.57c.351 4.126 3.982 7.189 8.11 6.835 4.127-.352 7.188-3.983 6.835-8.11l-8.49-99.57c-.352-4.127-3.983-7.194-8.11-6.835z"/><path d="m118.484 351.671c-4.083.696-6.829 4.571-6.132 8.654l16.23 95.18c.698 4.092 4.58 6.828 8.654 6.132 4.083-.696 6.829-4.57 6.132-8.654l-16.23-95.18c-.697-4.083-4.575-6.828-8.654-6.132z"/><path d="m303.839 129.37c-9.68 9.679-17.248 22.343-20.763 34.744-4.214 14.867-2.08 27.51 6.009 35.599 5.45 5.45 13.143 8.044 21.836 8.044 27.506 0 59.993-24.816 69.269-57.542 4.214-14.867 2.081-27.51-6.008-35.599-15.067-15.067-47.28-8.31-70.343 14.754zm61.92 16.754c-2.797 9.867-9.129 20.419-16.938 28.228-12.386 12.386-27.236 18.479-37.881 18.477-4.815 0-8.773-1.248-11.249-3.723-4.015-4.015-4.811-11.633-2.184-20.902 2.797-9.867 9.128-20.419 16.938-28.228 12.386-12.386 27.236-18.477 37.881-18.477 4.815 0 8.773 1.248 11.249 3.723 4.015 4.015 4.811 11.633 2.184 20.902z"/><path d="m391.314 57.536c-2.296-3.448-6.952-4.381-10.399-2.086-18.547 12.35-39.016 23.267-60.837 32.448-5.74 2.414-11.37 5.447-16.764 9.01-71.064-15.594-156.269-6.639-216.824 31.565-40.776 25.727-63.233 60.292-63.233 97.329 0 17.211.424 10.848 46.211 191.702 4.93 26.39 24.604 50.516 55.429 67.963 30.293 17.146 69.29 26.588 109.808 26.588s79.515-9.442 109.808-26.588c30.825-17.447 50.499-41.573 55.429-67.963l15.409-60.236c1.026-4.013-1.395-8.098-5.407-9.125s-8.098 1.395-9.125 5.407c-15.884 62.093-15.507 60.573-15.583 60.99-4.034 22.043-21.121 42.596-48.111 57.873-58.002 32.829-146.739 32.883-204.838 0-26.991-15.276-44.077-35.83-48.112-57.873-.075-.409 1.418 5.469-30.046-117.532 8.967 9.423 19.794 18.193 32.363 26.123 39.703 25.049 92.34 38.844 148.214 38.844s108.512-13.795 148.214-38.844c12.569-7.93 23.396-16.7 32.363-26.123l-5.442 21.274c-1.026 4.013 1.395 8.099 5.407 9.125 3.996 1.022 8.094-1.378 9.125-5.407 19.292-77.083 21.78-79.172 21.78-96.198 0-27.684-12.555-54.081-36.381-76.645 12.558-25.76 27.574-49.12 44.789-69.651l27.553-32.86c9.518-11.351 8.796-27.809-1.678-38.283-10.476-10.474-26.933-11.196-38.284-1.678l-32.861 27.554c-3.174 2.662-3.59 7.392-.928 10.566 2.66 3.174 7.392 3.589 10.566.928l32.861-27.554c5.348-4.484 13.103-4.144 18.038.791 4.935 4.936 5.275 12.69.791 18.038l-27.553 32.861c-23.225 27.699-41.808 59.321-55.992 93.035-11.289 26.835-38.212 50.254-67.013 54.684-13.945 2.143-28.421-.335-38.468-10.382-9.109-9.109-12.796-22.771-10.382-38.468 4.412-28.687 27.721-55.67 54.684-67.013 22.692-9.547 44.001-20.915 63.334-33.789 3.447-2.296 4.381-6.952 2.085-10.4zm39.838 168.266c0 36.206-25.615 65.323-56.237 84.643-37.338 23.557-87.132 36.531-140.21 36.531s-102.873-12.974-140.21-36.531c-30.642-19.332-56.237-48.288-56.237-84.643 0-31.703 19.972-61.763 56.237-84.643 37.338-23.557 87.132-36.531 140.21-36.531 18.136 0 35.968 1.522 53.204 4.532-4.48 4.249-8.729 8.964-12.571 14.051-13.959-2.125-27.607-3.201-40.633-3.201-37.904 0-82.088 9.663-115.31 25.218-43.018 20.143-65.756 48.004-65.756 80.574 0 69.028 105.156 105.792 181.066 105.792 37.904 0 82.088-9.663 115.31-25.219 43.019-20.143 65.757-48.004 65.757-80.574 0-17.22-6.525-33.248-19.409-47.718 1.69-3.074 3.208-6.202 4.538-9.364.719-1.708 1.448-3.407 2.187-5.097 18.399 18.815 28.064 40.144 28.064 62.18zm-43.325-34.574c8.596 10.779 12.944 22.376 12.944 34.574 0 3.857-.418 7.557-1.197 11.102-3.689-12.081-11.192-23.448-22.254-33.641 3.778-3.759 7.3-7.793 10.507-12.035zm-66.98 48.393-32.562 32.562-24.153-24.153 20.483-20.482c9.344 4.584 19.645 6.192 29.835 5.677zm-49.861-21.809c.359.359.723.712 1.092 1.059l-18.921 18.921c-2.735 2.734-4.241 6.37-4.241 10.237s1.506 7.503 4.241 10.237l24.893 24.893c5.644 5.644 14.829 5.645 20.474 0l33.301-33.301c5.387-5.387 5.632-13.998.737-19.679 11.634-3.296 23.015-9.094 33.383-16.99 14.125 12.493 21.277 26.397 21.277 41.398 0 2.544-.203 5.08-.605 7.561-11.432 13.585-28.02 23.648-42.963 30.644-31.357 14.682-73.104 23.803-108.949 23.803-37.556 0-78.971-9.237-110.785-24.708-14.272-6.94-30.095-16.813-41.143-29.949-.391-2.417-.589-4.883-.589-7.351 0-17.399 9.378-33.18 27.874-46.905 3.326-2.468 4.022-7.166 1.554-10.492-2.469-3.327-7.166-4.022-10.492-1.554-16.091 11.94-26.683 25.934-31.295 41.144-.775-3.509-1.19-7.167-1.19-10.977 0-33.263 31.061-54.789 57.117-66.989 31.357-14.682 73.104-23.803 108.949-23.803 10.201 0 20.827.704 31.711 2.096-3.577 6.664-6.336 13.572-8.188 20.559-8.053-.796-15.939-1.198-23.523-1.198-32.911 0-70.53 7.718-100.63 20.647-3.806 1.635-5.566 6.045-3.931 9.851s6.046 5.566 9.851 3.931c27.902-11.984 64.193-19.429 94.71-19.429 6.761 0 13.794.344 20.986 1.023-1.365 18.065 3.966 33.991 15.295 45.321z"/><path d="m344.675 145.758-14.884-2.469c-4.087-.68-7.949 2.085-8.626 6.171s2.085 7.949 6.171 8.626l14.884 2.469c4.094.678 7.95-2.092 8.626-6.171.678-4.086-2.085-7.948-6.171-8.626z"/></g></svg>