<svg id="Capa_1" enable-background="new 0 0 511.868 511.868" height="512" viewBox="0 0 511.868 511.868" width="512" xmlns="http://www.w3.org/2000/svg"><g><path d="m385.013 136.787-15.079 109.173c-.566 4.104 2.301 7.889 6.403 8.456 4.138.568 7.894-2.331 8.456-6.403 22.829-165.285 20.571-149.067 20.745-150.193 3.182-23.035-6.687-45.615-25.753-58.927-63.294-44.192-145.991-51.262-215.815-18.451-3.749 1.762-5.36 6.229-3.599 9.978 1.762 3.749 6.23 5.36 9.978 3.599 64.981-30.536 141.942-23.955 200.849 17.173 14.413 10.063 21.877 27.127 19.486 44.539-.002.016-.004.032-.007.048-1.51 10.919-6.636 20.828-14.923 29.212v-.22c0-8.616-4.818-16.357-12.097-20.336-.686-4.863-1.888-10.206-4.959-14.921-6.172-9.483-17.645-13.007-23.803-18.483-5.997-5.334-10.731-16.287-20.921-21.532-9.935-5.112-21.512-2.66-29.614-4.587-7.688-1.829-16.854-9.309-28.417-9.309-11.528 0-20.771 7.49-28.416 9.31-8.017 1.905-19.717-.508-29.613 4.587-10.192 5.244-14.928 16.201-20.923 21.532-6.154 5.475-17.622 8.99-23.803 18.483-2.47 3.794-3.733 7.968-4.504 12.135-7.137 3.411-11.839 10.63-11.839 18.772v5.301c-8.72-8.539-14.104-18.71-15.657-29.952-2.407-17.425 5.058-34.505 19.481-44.576 3.396-2.371 4.227-7.047 1.855-10.443-2.37-3.396-7.045-4.227-10.443-1.856-19.066 13.312-28.935 35.892-25.753 58.927 11.59 83.908 26.198 189.677 38.129 276.054.566 4.104 4.356 6.967 8.456 6.403 4.104-.567 6.97-4.353 6.403-8.456l-3.623-26.222c66.016 26.363 137.578 25.016 200.497-.136l-17.804 128.899c-.379 2.748-2.193 5.146-4.802 6.287-49.352 21.607-105.974 21.637-155.349.083-2.546-1.111-4.363-3.51-4.742-6.262l-9.33-67.546c-.566-4.104-4.359-6.97-8.456-6.403-4.104.567-6.97 4.353-6.403 8.456l9.33 67.545c1.089 7.89 6.3 14.771 13.6 17.958 52.501 22.92 113.509 23.492 167.434-.118 7.287-3.19 12.489-10.067 13.578-17.946 1.79-12.963 24.179-175.061 26.572-192.385.566-4.104-2.3-7.889-6.403-8.456-4.104-.564-7.89 2.3-8.456 6.403l-6.383 46.21c-.155.075-.313.147-.474.218-15.689 6.869-31.936 12.08-48.472 15.634-3.094-32.448-12.788-64.472-28.24-93.123-4.802-8.903-10.2-17.568-16.086-25.827 23.785-30.205 54.959-54.108 90.475-69.314 10.784-4.622 20.872-10.9 29.234-18.992zm-198.053-54.551c7.303-6.496 11.637-16.222 17.818-19.403 5.9-3.037 16.508-1.022 26.219-3.331 9.489-2.256 17.824-8.902 24.946-8.902 7.111 0 15.469 6.648 24.946 8.902 9.706 2.309 20.312.29 26.22 3.332 6.174 3.178 10.525 12.917 17.817 19.404 7.409 6.588 17.538 9.833 21.201 15.459.463.711.85 1.505 1.178 2.36l-2.73-.557c-.054-.012-.107-.023-.162-.033l-21.971-4.484c-10.91-2.224-21.137 6.105-21.137 17.259v12.836c-2.785-.491-5.643-.516-8.458-.065v-27.952c0-8.124-4.539-15.375-11.847-18.925-7.309-3.551-15.813-2.634-22.199 2.388l-27.292 21.465c-8.543 6.719-13.442 16.807-13.442 27.676v2.285l-4.11-1.659c-2.297-.927-4.737-1.284-7.129-1.091-1.702-7.731-7.085-14.225-14.662-17.283l-26.735-10.789c-.361-.146-.726-.281-1.092-.405.379-1.129.841-2.139 1.419-3.027 3.664-5.625 13.798-8.874 21.202-15.46zm20.745 62.033c.302-.204.539-.108.641-.067 1.577.637-3.019-1.218 18.263 7.37 12.97 5.234 21.351 17.653 21.351 31.639v20.265c-12.146-13.486-25.759-25.582-40.556-36.062v-22.576c-.001-.11-.001-.366.301-.569zm52.463-29.497c-4.143 0-7.5 3.358-7.5 7.5v22.578c-1.099 1.543-2.023 3.209-2.754 4.967-4.617-4.975-10.312-9.029-16.844-11.805v-8.347c0-6.239 2.812-12.029 7.716-15.886l27.292-21.465c2.682-2.11 5.35-1.182 6.372-.686 1.022.497 3.4 2.02 3.4 5.433v33.313l-10.182 4.109v-12.211c0-4.143-3.358-7.5-7.5-7.5zm-108.322 5.646c0-2.784 1.788-4.291 2.557-4.809.769-.519 2.834-1.614 5.416-.571l26.735 10.789c3.553 1.434 5.849 4.835 5.849 8.667v23.095c-4.409-2.664-8.905-5.192-13.482-7.579v-13.376c0-4.142-3.357-7.5-7.5-7.5s-7.5 3.358-7.5 7.5v6.188c-.641-.281-1.283-.56-1.927-.835-3.597-1.54-6.983-3.227-10.147-5.05v-16.519zm142.973 226.35c-47.842 7.367-96.913 1.043-141.115-18.256-.128-.055-.312-.141-.394-.18l-26.456-191.544c8.423 8.151 18.546 14.41 29.234 18.986 47.794 20.464 87.396 56.461 112.099 102.261 14.716 27.284 23.867 57.824 26.632 88.733zm-31.86-142.23v-44.877c0-2.606.944-5.036 2.573-6.908.118-.121.232-.245.341-.373 1.011-1.054 2.253-1.906 3.672-2.479l18.48-7.458c.09-.034.179-.07.267-.108l4.649-1.876c3.817-1.539 7.859-.738 10.818 1.791.065.059.132.117.199.174 2.207 1.982 3.446 4.751 3.446 7.795v15.144c-5.497 3.775-10.837 7.77-16.005 11.974v-6.019c0-4.142-3.357-7.5-7.5-7.5s-7.5 3.358-7.5 7.5v19.271c-4.657 4.467-9.142 9.12-13.44 13.949zm86.916-62.553c-9.462 4.051-18.636 8.683-27.469 13.854v-5.62c0-6.154-2.206-12-6.099-16.561v-21.417c0-1.079.602-1.731.961-2.024.358-.293 1.113-.755 2.177-.537l16.044 3.274v15.408c0 4.142 3.357 7.5 7.5 7.5s7.5-3.358 7.5-7.5v-12.347l3.74.763c3.767.768 6.525 4.119 6.525 7.992v11.739c-3.373 1.986-7.003 3.816-10.879 5.476z"/><path d="m327.344 218.026c4.143 0 7.5-3.358 7.5-7.5s-3.357-7.5-7.5-7.5c-13.251 0-24.031 10.781-24.031 24.032s10.78 24.032 24.031 24.032c10.644 0 20.138-7.136 23.089-17.353 1.149-3.979-1.145-8.137-5.124-9.287-3.977-1.147-8.137 1.145-9.286 5.124-1.108 3.836-4.677 6.516-8.679 6.516-4.979 0-9.031-4.052-9.031-9.032s4.052-9.032 9.031-9.032z"/><path d="m207.093 234.266c0-6.412-2.497-12.439-7.031-16.973-2.928-2.929-7.677-2.928-10.606 0-2.929 2.929-2.929 7.678.001 10.607 3.518 3.518 3.519 9.213-.001 12.732-1.7 1.701-3.961 2.637-6.365 2.637-2.405 0-4.666-.937-6.367-2.637-2.928-2.929-7.677-2.928-10.606 0-2.929 2.929-2.929 7.678.001 10.607 4.533 4.533 10.562 7.03 16.973 7.03s12.439-2.497 16.972-7.03c4.532-4.534 7.029-10.562 7.029-16.973z"/><path d="m243.306 302.88c-3.534-2.159-8.149-1.044-10.311 2.491-1.942 3.18-5.322 5.079-9.041 5.079-5.835 0-10.582-4.747-10.582-10.582s4.747-10.582 10.582-10.582c4.143 0 7.5-3.358 7.5-7.5s-3.357-7.5-7.5-7.5c-14.106 0-25.582 11.476-25.582 25.582s11.476 25.582 25.582 25.582c8.987 0 17.152-4.583 21.842-12.259 2.16-3.536 1.044-8.151-2.49-10.311z"/></g></svg>